<svg width="64" height="64" viewBox="0 0 64 64" fill="none" xmlns="http://www.w3.org/2000/svg">
<rect width="64" height="64" fill="#1D1D1D"/>
<path d="M32.7807 48C29.8283 48 27.1462 47.3858 24.7344 46.1574C22.3642 44.929 20.4722 43.1478 19.0583 40.8138C17.6861 38.4798 17 35.675 17 32.3992V31.6008C17 28.325 17.6861 25.5406 19.0583 23.2476C20.4722 20.9136 22.3642 19.1324 24.7344 17.904C27.1462 16.6347 29.8283 16 32.7807 16C35.7331 16 38.2488 16.5323 40.328 17.5969C42.4071 18.6615 44.0704 20.0742 45.3179 21.8349C46.607 23.5956 47.4386 25.5406 47.8129 27.6699L41.5755 28.9597C41.3675 27.6084 40.9309 26.38 40.2656 25.2745C39.6003 24.1689 38.6647 23.2885 37.4588 22.6334C36.2529 21.9782 34.7351 21.6507 32.9054 21.6507C31.1174 21.6507 29.4956 22.0601 28.0402 22.8791C26.6264 23.6571 25.5037 24.8036 24.672 26.3186C23.8404 27.7927 23.4245 29.5944 23.4245 31.7236V32.2764C23.4245 34.4056 23.8404 36.2278 24.672 37.7428C25.5037 39.2578 26.6264 40.4044 28.0402 41.1823C29.4956 41.9603 31.1174 42.3493 32.9054 42.3493C35.6083 42.3493 37.6667 41.6737 39.0805 40.3225C40.4943 38.9303 41.3883 37.1695 41.7626 35.0403L48 36.453C47.501 38.5413 46.607 40.4658 45.3179 42.2265C44.0704 43.9872 42.4071 45.3999 40.328 46.4645C38.2488 47.4882 35.7331 48 32.7807 48Z" fill="white"/>
</svg>
